<svg viewBox="0 0 40 24" xmlns="http://www.w3.org/2000/svg">
    <path d="M.718 5.227h3.314l.786-3.62L9.738 0 8.61 5.227h4.1l-.718 3.348h-4.1l-1.674 7.687c-.102.41-.205 1.026-.205 1.71 0 1.057.718 1.707 1.743 1.707.82 0 1.64-.175 2.22-.41l-.786 3.55c-.785.17-1.674.41-2.46.41-3.108 0-5.295-1.23-5.295-4.61 0-1.37.273-2.7.58-4.1l1.3-5.948H0l.718-3.348zm13.967 1.948c.136-.683.272-1.4.376-1.948h4.27l-.41 2.358h.07c1.23-1.81 3.247-2.767 5.4-2.767 2.084 0 4.236 1.23 4.476 3.348h.068c1.163-2.29 3.725-3.348 6.185-3.348 2.625 0 4.88 2.152 4.88 4.817 0 1.57-.41 3.348-.785 4.783L37.37 22.82h-4.578l1.845-8.574c.238-1.058.58-2.7.58-3.758 0-1.298-.99-2.118-2.152-2.118-3.177 0-3.963 3.69-4.544 6.082l-1.81 8.37h-4.575l1.846-8.576c.24-1.058.58-2.7.58-3.758 0-1.298-.99-2.118-2.153-2.118-3.108 0-3.962 3.724-4.543 6.082l-1.81 8.37h-4.58l3.213-15.647z" fill="#333" fill-rule="evenodd"/>
</svg>
