<svg xmlns="http://www.w3.org/2000/svg" xmlns:xlink="http://www.w3.org/1999/xlink" version="1.1" x="0px" y="0px" viewBox="0 0 100 100" enable-background="new 0 0 100 100" xml:space="preserve"><path fill-rule="evenodd" clip-rule="evenodd" d="M50.5,93c-23.748,0-43-19.251-43-43c0-23.748,19.252-43,43-43s43,19.252,43,43  C93.5,73.749,74.248,93,50.5,93z M60.578,87.625c1.855,0,3.359-1.504,3.359-3.359s-1.504-3.359-3.359-3.359  s-3.359,1.504-3.359,3.359S58.723,87.625,60.578,87.625z M81.167,46.322c-1.205-10.155-7.315-18.805-15.915-23.485  c-0.154-3.574-3.078-6.43-6.689-6.43c-2.253,0-4.234,1.118-5.454,2.819c-0.861-0.072-1.728-0.132-2.608-0.132  c-15.732,0-28.691,11.765-30.628,26.971c-0.307-0.062-0.625-0.096-0.95-0.096c-2.597,0-4.703,2.105-4.703,4.703  c0,2.599,2.106,4.703,4.703,4.703c0.397,0,0.777-0.064,1.146-0.157c0.894,5.243,3.09,10.033,6.27,14.021  c-0.004,0.082-0.025,0.161-0.025,0.245c0,2.599,2.106,4.703,4.703,4.703c0.084,0,0.163-0.021,0.246-0.025  c5.28,4.212,11.959,6.744,19.239,6.744c15.331,0,28.021-11.175,30.452-25.817c1.825-0.646,3.142-2.37,3.142-4.417  C84.094,48.704,82.883,47.023,81.167,46.322z M37.69,41.354c0.605,0.362,1.304,0.583,2.06,0.583c2.227,0,4.031-1.805,4.031-4.031  c0-0.584-0.13-1.135-0.353-1.636c2.121-1.095,4.521-1.724,7.072-1.724c8.535,0,15.453,6.919,15.453,15.453  c0,8.535-6.918,15.453-15.453,15.453c-3.631,0-6.963-1.261-9.601-3.356c2.984-2.846,5.974-5.797,7.394-7.207  c0.674,0.306,1.418,0.485,2.207,0.485c2.969,0,5.375-2.406,5.375-5.375c0-2.968-2.406-5.375-5.375-5.375  c-2.968,0-5.375,2.407-5.375,5.375c0,0.787,0.179,1.53,0.483,2.205l-7.286,7.285c-2.046-2.621-3.275-5.908-3.275-9.49  C35.047,46.797,36.022,43.822,37.69,41.354z M74.688,50.672c0,1.698,0.908,3.172,2.256,3.998  C74.729,67.282,63.746,76.875,50.5,76.875c-5.774,0-11.109-1.837-15.49-4.937c0.441-0.717,0.708-1.552,0.708-2.454  c0-0.777-0.206-1.499-0.541-2.145c0.912-0.773,2.027-1.776,3.253-2.916c3.268,2.736,7.473,4.389,12.069,4.389  c10.391,0,18.812-8.422,18.812-18.812c0-10.39-8.422-18.812-18.812-18.812c-3.611,0-6.973,1.035-9.839,2.8  c-0.294-0.068-0.596-0.113-0.911-0.113c-2.227,0-4.031,1.805-4.031,4.031c0,0.145,0.027,0.283,0.043,0.424  c-2.544,3.208-4.075,7.257-4.075,11.67c0,4.51,1.59,8.647,4.237,11.888l-3.219,3.219c-0.526-0.202-1.093-0.325-1.69-0.325  c-0.903,0-1.739,0.268-2.454,0.709c-3.1-4.381-4.937-9.717-4.937-15.49c0-14.843,12.032-26.875,26.875-26.875  c0.455,0,0.9,0.046,1.351,0.068c0.038,3.678,3.024,6.65,6.712,6.65c2.322,0,4.37-1.18,5.577-2.972  c6.978,4.125,11.921,11.297,12.992,19.698C75.683,47.372,74.688,48.897,74.688,50.672z"></path></svg>